<?xml version="1.0" standalone="no"?>
<!DOCTYPE svg PUBLIC "-//W3C//DTD SVG 20010904//EN"
 "http://www.w3.org/TR/2001/REC-SVG-20010904/DTD/svg10.dtd">
<svg version="1.0" xmlns="http://www.w3.org/2000/svg"
 width="5120.000000pt" height="5120.000000pt" viewBox="0 0 5120.000000 5120.000000"
 preserveAspectRatio="xMidYMid meet">

<g transform="translate(0.000000,5120.000000) scale(0.100000,-0.100000)"
fill="#000000" stroke="none">
<path d="M9675 38769 c-38 -5 -124 -22 -190 -38 -603 -147 -1087 -586 -1284
-1166 -17 -49 -341 -1251 -721 -2670 -380 -1419 -749 -2796 -820 -3060 -991
-3694 -1636 -6109 -1653 -6190 -18 -85 -21 -134 -21 -330 0 -201 3 -243 23
-335 140 -647 573 -1153 1165 -1359 49 -18 468 -133 930 -257 2577 -691 4078
-1093 4291 -1150 295 -78 401 -95 610 -95 640 1 1227 336 1551 887 30 51 69
126 86 166 18 40 33 75 35 77 1 2 109 -86 240 -196 5087 -4265 8426 -7016
8998 -7415 287 -200 660 -339 1070 -397 758 -109 1648 11 2948 399 129 39 239
70 245 70 5 0 117 -105 248 -233 261 -254 281 -269 506 -376 379 -180 778
-308 1125 -362 196 -30 507 -37 673 -15 379 50 686 191 938 431 275 262 473
613 603 1070 24 83 44 151 44 153 1 1 69 -11 151 -27 225 -45 328 -55 569 -54
173 0 250 5 363 22 767 116 1311 533 1555 1191 80 215 115 411 124 688 4 147
9 202 18 202 6 0 54 -9 106 -19 541 -112 1092 -87 1534 69 312 111 584 280
810 505 326 324 533 737 612 1220 25 154 25 506 0 660 -38 232 -103 446 -192
627 l-42 86 26 20 c108 80 900 627 948 656 8 4 24 -16 47 -62 19 -38 66 -116
104 -173 426 -637 1201 -931 1951 -739 131 33 192 59 1266 530 556 243 1388
608 1850 810 2462 1078 2239 977 2393 1083 178 122 311 250 440 425 298 403
413 927 312 1422 -41 199 16 64 -1053 2505 -156 358 -682 1557 -1167 2665
-485 1108 -1074 2452 -1307 2985 -234 534 -655 1494 -935 2135 -281 641 -527
1199 -548 1241 -52 103 -164 267 -249 364 -249 286 -621 498 -1013 577 -98 20
-143 23 -338 23 -258 0 -367 -16 -565 -84 -60 -21 -634 -268 -1275 -548 -1993
-874 -2615 -1146 -3230 -1415 -701 -306 -747 -328 -882 -418 -260 -172 -459
-397 -603 -680 -120 -237 -183 -476 -192 -732 -3 -82 -8 -148 -12 -148 -3 0
-58 16 -121 36 -475 146 -1438 431 -1970 583 -2833 806 -4366 1078 -5765 1022
-407 -17 -665 -37 -1365 -106 -1597 -159 -2304 -203 -3646 -225 -625 -10
-1659 -1 -2319 21 -176 5 -395 11 -485 12 -157 2 -169 1 -239 -25 l-74 -27 7
52 c62 497 -75 988 -384 1377 -76 96 -214 232 -307 303 -139 106 -341 215
-503 270 -41 14 -487 136 -990 271 -503 134 -1041 278 -1195 320 -154 41 -937
251 -1740 466 -803 216 -1503 401 -1555 412 -110 23 -447 33 -565 17z m1105
-1398 c410 -110 1537 -412 2505 -671 2126 -569 2036 -544 2110 -579 134 -62
262 -209 307 -354 19 -58 23 -94 22 -187 l0 -115 -127 -465 c-183 -675 -176
-646 -306 -1135 -66 -247 -314 -1174 -551 -2060 -237 -885 -498 -1860 -580
-2165 -122 -455 -521 -1945 -1100 -4105 -49 -181 -177 -661 -285 -1065 -108
-404 -205 -756 -214 -781 -61 -159 -230 -309 -401 -355 -115 -31 -230 -24
-405 24 -82 22 -276 75 -430 116 -298 80 -2146 575 -3752 1005 -534 143 -994
269 -1023 280 -108 41 -231 147 -294 255 -61 105 -90 244 -75 367 4 36 158
627 343 1315 291 1087 1099 4102 2432 9079 207 770 387 1426 402 1459 47 106
142 210 248 272 101 59 235 86 364 72 36 -4 400 -97 810 -207z m29059 -577
c41 -14 94 -37 119 -51 62 -37 154 -124 195 -186 19 -29 510 -1139 1092 -2467
581 -1328 1582 -3612 2222 -5075 641 -1463 1264 -2885 1384 -3161 142 -324
225 -525 234 -570 29 -135 12 -260 -51 -392 -46 -97 -168 -223 -256 -265 -56
-26 -643 -284 -3643 -1597 -764 -335 -1417 -616 -1450 -625 -69 -18 -192 -20
-267 -4 -72 15 -203 78 -258 123 -62 52 -123 128 -154 192 -14 29 -304 689
-645 1466 -340 777 -1102 2518 -1694 3868 -591 1350 -1258 2874 -1482 3385
-395 902 -670 1534 -782 1799 -30 71 -60 138 -68 150 -27 42 -214 482 -226
531 -6 28 -11 93 -11 145 0 198 100 385 267 496 28 18 147 76 265 128 197 86
869 380 3235 1416 468 205 1013 444 1212 531 341 149 426 182 498 193 61 9
191 -6 264 -30z m-14189 -2364 c293 -11 440 -22 700 -50 1223 -134 2820 -521
5610 -1361 494 -149 1349 -412 1391 -427 31 -12 -87 261 1451 -3357 187 -440
429 -1009 538 -1265 109 -256 269 -631 355 -835 87 -203 240 -563 340 -800
956 -2247 1296 -3048 1293 -3050 -2 -1 -82 -55 -178 -120 -229 -155 -523 -359
-737 -511 l-172 -123 -158 197 c-862 1074 -2229 2584 -4008 4427 -169 176
-332 357 -436 485 -374 459 -695 817 -1089 1210 -162 163 -360 355 -440 426
-1352 1218 -2583 1729 -3795 1574 -436 -56 -834 -181 -1300 -410 -420 -206
-836 -470 -1450 -918 -599 -438 -692 -505 -890 -637 -423 -283 -728 -430
-1027 -497 -88 -20 -129 -23 -288 -22 -156 0 -197 4 -262 22 -458 126 -774
477 -878 974 -57 276 -51 651 19 1028 156 846 614 1939 1311 3130 158 271 374
618 398 641 14 13 68 19 267 33 331 22 702 55 1375 121 695 68 959 91 1225
105 393 20 525 22 835 10z m-7800 -312 c252 -8 880 -13 1543 -13 614 0 1117
-1 1117 -2 0 -1 -26 -48 -59 -105 -185 -327 -447 -843 -601 -1183 -457 -1012
-714 -1868 -802 -2670 -8 -75 -13 -244 -13 -450 0 -295 3 -347 24 -485 126
-840 532 -1417 1264 -1800 217 -114 493 -203 762 -247 150 -24 495 -24 647 0
605 96 1127 361 2068 1048 566 413 694 505 861 616 658 440 1173 655 1734 724
143 18 463 15 620 -5 657 -84 1329 -405 2041 -976 244 -195 428 -363 735 -669
379 -380 647 -678 992 -1106 67 -82 250 -283 407 -445 2038 -2108 3563 -3801
4261 -4735 438 -585 543 -815 526 -1159 -13 -257 -97 -463 -259 -632 -76 -79
-168 -149 -253 -192 -67 -34 -210 -80 -302 -99 -125 -25 -464 -25 -621 0 -230
36 -534 126 -789 233 l-108 45 -2360 2358 c-1535 1533 -2378 2369 -2413 2391
-87 54 -191 82 -307 83 -115 1 -185 -16 -285 -69 -180 -94 -301 -282 -316
-492 -10 -132 37 -290 118 -395 17 -23 1081 -1093 2364 -2377 l2332 -2335 36
-150 c58 -243 69 -330 70 -530 0 -154 -3 -193 -22 -270 -36 -142 -82 -227
-171 -315 -112 -111 -244 -171 -452 -206 -133 -22 -396 -15 -544 16 -195 39
-389 116 -512 202 -34 24 -1065 970 -2293 2103 -1227 1133 -2256 2076 -2286
2096 -208 138 -508 120 -702 -43 -251 -210 -290 -575 -88 -832 16 -22 993
-928 2171 -2015 1177 -1086 2158 -1992 2180 -2012 l39 -37 -13 -68 c-19 -96
-92 -316 -131 -394 -107 -213 -259 -371 -434 -450 -295 -134 -692 -104 -1130
86 l-89 39 -1076 1044 c-592 575 -1280 1243 -1529 1485 -249 243 -481 460
-515 483 -95 66 -199 96 -327 97 -81 0 -121 -5 -175 -21 -181 -57 -322 -193
-393 -381 -35 -94 -38 -263 -5 -367 48 -152 31 -133 951 -1028 469 -456 851
-831 849 -833 -1 -2 -72 -21 -157 -43 -941 -244 -1687 -294 -2147 -145 -191
62 -282 121 -773 509 -1027 811 -4217 3450 -7640 6320 -644 540 -1086 910
-1237 1038 -79 65 -143 124 -143 129 0 6 227 882 504 1947 278 1065 739 2836
1026 3936 475 1822 840 3222 892 3415 l20 76 367 142 366 141 80 -4 c44 -3
271 -11 505 -17z"/>
<path d="M9065 28123 c-204 -24 -387 -78 -570 -169 -170 -84 -294 -173 -435
-314 -141 -141 -230 -265 -314 -435 -112 -226 -162 -423 -173 -670 -12 -300
45 -564 178 -828 88 -175 183 -301 341 -453 507 -487 1281 -598 1906 -274 163
85 288 176 417 305 407 408 574 983 449 1544 -66 296 -208 561 -418 779 -156
162 -278 253 -466 347 -170 85 -330 135 -520 160 -94 13 -318 18 -395 8z m338
-1222 c321 -124 405 -545 155 -776 -136 -127 -313 -162 -489 -99 -113 41 -224
152 -269 271 -27 70 -37 189 -21 262 36 168 182 319 348 361 65 16 211 6 276
-19z"/>
<path d="M41647 27575 c-281 -46 -541 -156 -764 -324 -43 -32 -128 -110 -188
-173 -395 -408 -552 -965 -429 -1517 144 -647 657 -1144 1319 -1278 71 -14
136 -18 310 -18 191 0 234 3 325 23 709 154 1224 704 1325 1414 46 324 -10
657 -161 963 -228 461 -650 786 -1164 895 -136 29 -438 37 -573 15z m386
-1205 c134 -42 248 -148 297 -278 14 -35 24 -90 27 -143 7 -108 -17 -197 -78
-288 -50 -75 -104 -120 -195 -163 -59 -28 -82 -33 -165 -36 -157 -7 -265 35
-364 139 -238 249 -136 655 191 768 80 27 200 28 287 1z"/>
</g>
</svg>
